<?xml version="1.0" encoding="utf-8"?>
<!-- Generator: Adobe Illustrator 27.5.0, SVG Export Plug-In . SVG Version: 6.00 Build 0)  -->
<svg version="1.1" xmlns="http://www.w3.org/2000/svg" xmlns:xlink="http://www.w3.org/1999/xlink" x="0px" y="0px"
	 viewBox="0 0 500 500" style="enable-background:new 0 0 500 500;" xml:space="preserve">
<!-- <g id="BACKGROUND">
	<rect style="fill:#FFFFFF;" width="500" height="500"/>
</g> -->

<g id="OBJECTS">
	<g>
		<defs>
			<path id="SVGID_1_" d="M49.449,179.747c1.129-26.558,8.684-52.241,25.476-75.879c63.154-88.896,221.45-86.644,309.042-36.593
				c26.301,15.029,48.926,38.072,57.989,66.572c7.32,23.02,5.43,47.672,5.299,71.751c-0.148,27.149,5.662,47.284,16.805,71.648
				c8.919,19.5,10.794,42.678,7.184,63.52c-7.832,45.223-41.527,81.822-81.96,102.577c-64.263,32.988-166.226,33.392-244.623,14.389
				c-39.622-9.604-77.461-29.044-96.703-56.391c-15.309-21.759-17.68-46.645-12.792-69.563c3.93-18.426,13.224-34.892,20.994-52.268
				c6.228-13.928,3.593-26.035-0.134-41.177C51.18,218.641,48.632,198.964,49.449,179.747z"/>
		</defs>
		<clipPath id="SVGID_00000014630112258797916160000007543736121094750904_">
			<use xlink:href="#SVGID_1_"  style="overflow:visible;"/>
		</clipPath>
		<g style="clip-path:url(#SVGID_00000014630112258797916160000007543736121094750904_);">
			<g>
				<g>
					<rect x="4.56" y="-1.994" style="fill:#F2D1C8;" width="499.759" height="499.759"/>
					<path style="opacity:0.46;fill:#E8BBB1;" d="M242.868-1.965c0,0,78.807,120.306-59.043,165.878
						C45.976,209.486,4.56,363.95,4.56,363.95V-1.994L242.868-1.965z"/>
					<path style="opacity:0.46;fill:#E8BBB1;" d="M354.118,497.765c0,0-86.862-120.055,37.765-165.513
						c83.903-32.645,112.436-181.949,112.436-181.949v347.462H354.118z"/>
					<path style="opacity:0.46;fill:#E8BBB1;" d="M206.584,497.765c0,0-12.056-198.564-128.917-132.998
						c-35.653,21-31.333,103.012-73.107,74.881c0,58.118,0,58.118,0,58.118H206.584z"/>
				</g>
				<path style="opacity:0.3;fill:#FFFFFF;" d="M371.862,95.546c0,12.521-10.15,22.671-22.671,22.671
					c-12.521,0-22.671-10.15-22.671-22.671c0-12.521,10.15-22.671,22.671-22.671C361.712,72.875,371.862,83.025,371.862,95.546z"/>
			</g>
			<g>
				<rect x="61.899" y="68.965" style="opacity:0.46;fill:#E8BBB1;" width="100.222" height="134.85"/>
				<rect x="66.128" y="72.61" style="fill:#F4D9D3;" width="91.764" height="127.561"/>
			</g>
			<g>
				<rect x="169.675" y="52.191" style="opacity:0.46;fill:#E8BBB1;" width="45.774" height="61.589"/>
				<rect x="171.606" y="53.855" style="fill:#F4D9D3;" width="41.911" height="58.26"/>
			</g>
		</g>
	</g>
	<path style="fill:#49241D;" d="M407.1,431.094c0,3.791-69.221,6.865-154.61,6.865c-85.389,0-154.61-3.073-154.61-6.865
		c0-3.791,69.221-6.865,154.61-6.865C337.878,424.229,407.1,427.302,407.1,431.094z"/>
	<g>
		<path style="fill:#AF4646;" d="M339.078,131.648h-6.507c-1.893,0-3.427-1.534-3.427-3.427v-3.886h13.36v3.886
			C342.505,130.114,340.971,131.648,339.078,131.648z"/>
		<path style="fill:#D3D1C5;" d="M349.066,124.766H323c-2.543,0-4.604-2.061-4.604-4.604V76.029c0-2.543,2.061-4.604,4.604-4.604
			h26.066c2.543,0,4.604,2.061,4.604,4.604v44.133C353.67,122.705,351.609,124.766,349.066,124.766z"/>
		<path style="fill:#FFF6E7;" d="M318.396,97.423v22.739c0,2.542,2.061,4.604,4.604,4.604h26.066c2.543,0,4.604-2.061,4.604-4.604
			V97.423H318.396z"/>
		<rect x="321.703" y="61.209" style="fill:#D66562;" width="89.689" height="3.549"/>
		<rect x="360.579" y="64.758" style="fill:#E08080;" width="11.937" height="58.385"/>
		<path style="fill:#D66562;" d="M361.253,122.155h10.59c2.125,0,3.847,1.722,3.847,3.847v5.24c0,2.125-1.722,3.847-3.847,3.847
			h-10.59c-2.125,0-3.847-1.722-3.847-3.847v-5.24C357.405,123.878,359.128,122.155,361.253,122.155z"/>
		<rect x="363.806" y="135.09" style="fill:#F4E9D3;" width="5.485" height="267.999"/>
		<rect x="321.192" y="100.483" style="fill:#D66562;" width="29.466" height="20.841"/>
		<rect x="327.43" y="78.863" style="fill:#FFF6E7;" width="17.852" height="15.173"/>
		<path style="fill:none;stroke:#D3D1C5;stroke-width:2.6687;stroke-linecap:round;stroke-miterlimit:10;" d="M327.738,71.425V64.96
			c0-3.3,1.434-5.976,3.203-5.976h10.156c1.769,0,3.203,2.676,3.203,5.976v6.465"/>
		<rect x="360.579" y="64.758" style="fill:#BA5050;" width="11.937" height="4.55"/>
		<rect x="363.806" y="135.09" style="fill:#B7A991;" width="5.485" height="3.067"/>
		<path style="fill:none;stroke:#F4E9D3;stroke-width:3.797;stroke-miterlimit:10;" d="M334.009,420.386v-9.637
			c0-3.661,2.968-6.629,6.629-6.629h51.953c3.661,0,6.629,2.968,6.629,6.629v8.748"/>
		<g>
			<circle style="fill:#723C2E;" cx="399.464" cy="424.229" r="7.635"/>
			<circle style="fill:#F4E9D3;" cx="399.464" cy="424.286" r="4.304"/>
		</g>
		<g>
			<path style="fill:#723C2E;" d="M341.644,424.229c0,4.217-3.418,7.635-7.635,7.635c-4.217,0-7.635-3.418-7.635-7.635
				c0-4.217,3.419-7.635,7.635-7.635C338.225,416.594,341.644,420.012,341.644,424.229z"/>
			<path style="fill:#F4E9D3;" d="M338.313,424.286c0,2.377-1.927,4.304-4.304,4.304s-4.304-1.927-4.304-4.304
				c0-2.377,1.927-4.304,4.304-4.304S338.313,421.908,338.313,424.286z"/>
		</g>
		<rect x="321.49" y="61.209" style="fill:#D66562;" width="19.839" height="3.549"/>
		
			<rect x="316.066" y="56.502" transform="matrix(-1.836970e-16 1 -1 -1.836970e-16 380.8234 -264.2705)" style="fill:#D66562;" width="12.962" height="3.549"/>
		
			<rect x="403.137" y="56.502" transform="matrix(-1.836970e-16 1 -1 -1.836970e-16 467.8946 -351.3417)" style="fill:#D66562;" width="12.962" height="3.549"/>
		<g>
			<rect x="333.603" y="104.773" style="fill:#FFF6E7;" width="4.644" height="12.262"/>
			
				<rect x="333.603" y="104.773" transform="matrix(-1.836970e-16 1 -1 -1.836970e-16 446.8292 -225.0215)" style="fill:#FFF6E7;" width="4.644" height="12.262"/>
		</g>
	</g>
	<g>
		<g>
			<polygon style="fill:#723C2E;" points="168.534,394.58 173.549,416.566 253.112,416.566 253.112,394.58 			"/>
			<polygon style="fill:#723C2E;" points="183.094,416.566 185.296,435.203 190.55,435.203 192.562,416.566 			"/>
			<polygon style="fill:#49241D;" points="168.534,394.58 253.112,394.58 253.112,397.983 169.31,397.983 			"/>
			<polygon style="fill:#49241D;" points="183.094,416.566 192.562,416.566 192.093,420.912 183.607,420.912 			"/>
		</g>
		<g>
			<polygon style="fill:#723C2E;" points="337.69,394.58 332.674,416.566 253.112,416.566 253.112,394.58 			"/>
			<polygon style="fill:#723C2E;" points="323.13,416.566 320.928,435.203 315.673,435.203 313.662,416.566 			"/>
			<polygon style="fill:#49241D;" points="337.69,394.58 253.112,394.58 253.112,397.983 336.913,397.983 			"/>
			<polygon style="fill:#49241D;" points="323.13,416.566 313.662,416.566 314.131,420.912 322.617,420.912 			"/>
		</g>
		<path style="fill:#FFF6E7;" d="M319.827,293.405H186.396V171.871c0-10.143,8.222-18.365,18.365-18.365h96.702
			c10.142,0,18.365,8.222,18.365,18.365V293.405z"/>
		<rect x="190.55" y="244.614" style="fill:#D3D1C5;" width="21.83" height="149.965"/>
		<path style="fill:#FFF6E7;" d="M190.55,394.58h-32.778V255.018c0-3.971,3.219-7.19,7.19-7.19h25.587V394.58z"/>
		
			<rect x="293.844" y="244.614" transform="matrix(-1 -1.224647e-16 1.224647e-16 -1 609.5173 639.1939)" style="fill:#D3D1C5;" width="21.83" height="149.965"/>
		<path style="fill:#FFF6E7;" d="M315.673,394.58h32.778V255.018c0-3.971-3.219-7.19-7.19-7.19h-25.587V394.58z"/>
		<rect x="190.55" y="293.405" style="fill:#EFE4D3;" width="125.123" height="101.174"/>
		
			<line style="fill:none;stroke:#D3D1C5;stroke-width:0.6;stroke-miterlimit:10;" x1="315.673" y1="394.58" x2="315.673" y2="293.405"/>
		
			<line style="fill:none;stroke:#D3D1C5;stroke-width:0.6;stroke-miterlimit:10;" x1="190.55" y1="394.58" x2="190.55" y2="293.405"/>
	</g>
	<g>
		<g>
			<path style="fill:#933737;" d="M303.093,332.598c0,0-7.706,10.679-36.771,6.055c-29.064-4.624-53.615-21.028-69.578-8.037
				c26.302-31.598,91.105-30.275,91.105-30.275S302.213,321.589,303.093,332.598z"/>
			<path style="fill:#AF4646;" d="M259.81,434.685c0,0,0.349,4.07,3.172,6.579c2.823,2.509,10.664,5.175,14.428,2.823
				c3.764-2.353,12.076-19.918,15.526-29.484c3.45-9.567,2.447-15.611-2.697-18.784C284.781,395.784,259.931,428.891,259.81,434.685
				z"/>
			<path style="fill:#D66562;" d="M260.786,427.934c0,0-2.823,6.43,0.47,9.41c3.294,2.98,10.821,5.96,14.428,3.45
				c3.607-2.509,12.39-24.622,14.899-33.248c2.509-8.626,1.568-11.292-2.353-12.86c-3.921-1.568-9.253-1.255-9.253-1.255
				L260.786,427.934z"/>
			<path style="fill:#8C564F;" d="M206.314,302.051c0,0,25.302,48.513,41.403,72.351c16.101,23.838,16.101,39.521,14.219,44.958
				c-1.882,5.437-5.018,11.292,0.837,15.265c5.855,3.973,10.664,5.855,14.219,0c3.555-5.855,6.691-19.656,9.41-25.72
				c2.718-6.064,2.091-12.965-6.064-18.192c-8.573-5.855-20.492-34.294-24.047-46.213c-3.555-11.919-10.037-40.776-10.037-40.776
				S222.624,294.314,206.314,302.051z"/>
			<path style="fill:#6B3C39;" d="M243.905,368.575l13.914-19.408c-0.605-1.729-1.123-3.31-1.528-4.668
				c-3.555-11.919-10.037-40.776-10.037-40.776s-0.844-0.336-2.321-0.828l-29.394,14.598
				C222.293,331.846,234.145,353.251,243.905,368.575z"/>
			<path style="fill:none;stroke:#38110E;stroke-width:0.4024;stroke-miterlimit:10;" d="M269.056,437.958c0,0-2.865-3.908,0-7.358"
				/>
			<path style="fill:none;stroke:#38110E;stroke-width:0.4024;stroke-miterlimit:10;" d="M264.732,435.891
				c0,0-1.907-3.409,0.602-6.86"/>
			<path style="fill:#EFEEE4;" d="M284.482,414.066c-0.79,2.384-1.611,5.064-2.463,7.749c-5.241-6.583-14.319-5.786-19.554-4.614
				c0.271-1.594,0.392-3.618,0.236-6.061C270.687,407.469,280.013,411.568,284.482,414.066z"/>
			<path style="fill:none;stroke:#38110E;stroke-width:0.4024;stroke-miterlimit:10;" d="M272.078,393.901
				c0,0,0.784,4.234,5.803,4.078"/>
			<path style="fill:#8C564F;" d="M220.91,209.785c0,0-3.468,31.602-8.092,36.061c-4.624,4.459-18,6.275-18,6.275
				s1.486,7.266-1.816,8.587c-3.303,1.321-3.303-2.477-4.624-7.101c-0.157-0.551-0.308-1.054-0.45-1.515
				c-0.685-2.21-3.542-2.778-5.01-0.99c-1.172,1.428-2.255,3.078-2.467,4.487c-0.495,3.303-1.816,9.944-6.275,5.385
				c-3.468,4.523-7.761,0.89-7.596-2.413c-3.798-0.661-4.459-4.789-4.459-4.789s-2.807-0.991-1.651-4.459
				c1.156-3.468,1.156-7.101,10.899-10.073c9.743-2.973,23.449-8.257,23.449-8.257l6.771-29.728L220.91,209.785z"/>
			<path style="fill:none;stroke:#38110E;stroke-width:0.4256;stroke-miterlimit:10;" d="M194.818,252.121
				c0,0-0.495-3.4-0.826-5.085"/>
			<path style="fill:#6B3C39;" d="M216.573,236.212c-4.731,0.625-8.386,4.665-8.386,9.567c0,0.939,0.14,1.843,0.39,2.701
				c1.691-0.749,3.192-1.623,4.241-2.634C214.193,244.521,215.464,240.79,216.573,236.212z"/>
			<path style="fill:#6B3C39;" d="M199.618,209.911c4.157,1.509,14.995,6.158,19.228,14.755c1.296-7.878,2.065-14.881,2.065-14.881
				l-19.321-8.529L199.618,209.911z"/>
			<path style="fill:none;stroke:#38110E;stroke-width:0.4256;stroke-miterlimit:10;" d="M194.818,230.984
				c0,0,7.101-0.661,10.239,2.972"/>
			<path style="fill:none;stroke:#38110E;stroke-width:0.4256;stroke-miterlimit:10;" d="M174.176,260.974
				c0,0-1.651-9.348,1.486-13.146"/>
			<path style="fill:none;stroke:#38110E;stroke-width:0.4256;stroke-miterlimit:10;" d="M166.58,258.561
				c0,0,0.165-8.519,2.147-11.526"/>
			<path style="fill:none;stroke:#38110E;stroke-width:0.4256;stroke-miterlimit:10;" d="M162.121,253.773
				c0,0,0.826-7.596,3.633-9.083"/>
			<path style="fill:#8C564F;" d="M285.314,209.785c0,0,3.468,31.602,8.092,36.061c4.624,4.459,18,6.275,18,6.275
				s-1.486,7.266,1.816,8.587s3.303-2.477,4.624-7.101c0.157-0.551,0.308-1.054,0.45-1.515c0.685-2.21,3.542-2.778,5.01-0.99
				c1.172,1.428,2.255,3.078,2.466,4.487c0.495,3.303,1.816,9.944,6.275,5.385c3.468,4.523,7.762,0.89,7.596-2.413
				c3.798-0.661,4.459-4.789,4.459-4.789s2.807-0.991,1.651-4.459c-1.156-3.468-1.156-7.101-10.899-10.073
				s-23.449-8.257-23.449-8.257l-6.771-29.728L285.314,209.785z"/>
			<path style="fill:none;stroke:#38110E;stroke-width:0.4256;stroke-miterlimit:10;" d="M311.405,252.121
				c0,0,0.495-3.4,0.826-5.085"/>
			<path style="fill:#6B3C39;" d="M289.651,236.212c4.731,0.625,8.386,4.665,8.386,9.567c0,0.939-0.141,1.843-0.39,2.701
				c-1.691-0.749-3.192-1.623-4.241-2.634C292.031,244.521,290.76,240.79,289.651,236.212z"/>
			<path style="fill:#6B3C39;" d="M306.606,209.911c-4.157,1.509-14.995,6.158-19.228,14.755
				c-1.296-7.878-2.065-14.881-2.065-14.881l19.321-8.529L306.606,209.911z"/>
			<path style="fill:none;stroke:#38110E;stroke-width:0.4256;stroke-miterlimit:10;" d="M311.405,230.984
				c0,0-7.101-0.661-10.239,2.972"/>
			<path style="fill:none;stroke:#38110E;stroke-width:0.4256;stroke-miterlimit:10;" d="M332.047,260.974
				c0,0,1.651-9.348-1.486-13.146"/>
			<path style="fill:none;stroke:#38110E;stroke-width:0.4256;stroke-miterlimit:10;" d="M339.644,258.561
				c0,0-0.165-8.519-2.147-11.526"/>
			<path style="fill:none;stroke:#38110E;stroke-width:0.4256;stroke-miterlimit:10;" d="M344.103,253.773
				c0,0-0.826-7.596-3.633-9.083"/>
			<path style="fill:#AF4646;" d="M242.581,441.872c0,0-0.368,4.285-3.34,6.927c-2.973,2.642-11.229,5.45-15.193,2.973
				c-3.963-2.477-12.716-20.973-16.349-31.046c-3.633-10.073-2.577-16.438,2.84-19.779
				C216.286,400.91,242.453,435.771,242.581,441.872z"/>
			<path style="fill:#D66562;" d="M241.552,434.763c0,0,2.973,6.771-0.495,9.908c-3.468,3.138-11.395,6.275-15.193,3.633
				c-3.798-2.642-13.046-25.927-15.688-35.009c-2.642-9.083-1.651-11.89,2.477-13.541c4.128-1.651,9.743-1.321,9.743-1.321
				L241.552,434.763z"/>
			<path style="fill:#D66562;" d="M280.194,200.433l3.798,15.027c0,0,15.027-7.761,27.413-9.083
				c-6.11-22.954-16.349-45.413-27.743-49.376c-11.395-3.963-30.551,8.422-30.551,8.422s-19.156-12.385-30.55-8.422
				c-11.394,3.963-21.633,26.422-27.743,49.376c12.385,1.321,27.413,9.083,27.413,9.083l3.798-15.027c0,0-1.282,14.037,4.231,19.651
				c-2.579,28.404-11.332,43.266-11.332,43.266h34.183h34.183c0,0-8.752-14.862-11.332-43.266
				C281.476,214.47,280.194,200.433,280.194,200.433z"/>
			<path style="fill:none;stroke:#38110E;stroke-width:0.4256;stroke-miterlimit:10;" d="M226.029,200.433
				c0,0,3.792-27.023-6.526-41.915"/>
			<path style="fill:none;stroke:#38110E;stroke-width:0.4256;stroke-miterlimit:10;" d="M280.194,200.433
				c0,0-3.792-27.023,6.526-41.915"/>
			<path style="fill:#EFEEE4;" d="M278.491,156.229c-11.214,0.044-25.379,9.195-25.379,9.195s-14.164-9.151-25.379-9.195
				c1.489,8.581,6.809,23.54,25.379,35.782C271.681,179.769,277.002,164.81,278.491,156.229z"/>
			<path style="fill:#8C564F;" d="M274.331,156.607c-10.268,1.74-21.219,8.817-21.219,8.817s-10.951-7.077-21.219-8.817
				c0.602,5.964,3.942,19.49,21.219,30.298C270.388,176.097,273.729,162.571,274.331,156.607z"/>
			<path style="opacity:0.57;fill:#B24F4F;" d="M275.964,220.085c0,0-7.659,4.294-17.898,2.972
				c4.856,3.238,14.078,5.987,19.175,7.346C276.734,227.19,276.297,223.752,275.964,220.085z"/>
			<path style="opacity:0.57;fill:#B24F4F;" d="M255.754,240.561c-9.908-3.633-25.494-20.477-25.494-20.477
				c-0.219,2.41-0.485,4.714-0.784,6.929C240.791,240.409,265.428,244.109,255.754,240.561z"/>
			<path style="opacity:0.57;fill:#B24F4F;" d="M236.022,239.24c0,0,20.722,9.612,36.906,10.338
				C266.818,251.461,243.291,246.658,236.022,239.24z"/>
			<path style="fill:#8C564F;" d="M298.91,302.213c0,0-26.642,51.082-43.596,76.183c-16.954,25.101-16.954,41.615-14.973,47.339
				c1.982,5.725,5.284,11.89-0.881,16.073c-6.165,4.184-11.229,6.165-14.972,0c-3.743-6.165-7.046-20.697-9.908-27.083
				c-2.862-6.385-2.202-13.651,6.385-19.156c9.028-6.165,21.578-36.11,25.321-48.66c3.743-12.55,10.569-42.936,10.569-42.936
				S281.736,294.066,298.91,302.213z"/>
			<path style="fill:none;stroke:#38110E;stroke-width:0.4237;stroke-miterlimit:10;" d="M232.845,445.319c0,0,3.017-4.115,0-7.748"
				/>
			<path style="fill:none;stroke:#38110E;stroke-width:0.4237;stroke-miterlimit:10;" d="M237.397,443.142
				c0,0,2.008-3.59-0.634-7.223"/>
			<path style="fill:#EFEEE4;" d="M216.601,420.161c0.832,2.51,1.696,5.332,2.593,8.159c5.518-6.932,15.078-6.093,20.59-4.858
				c-0.285-1.678-0.413-3.81-0.249-6.382C231.127,413.214,221.307,417.53,216.601,420.161z"/>
			<path style="fill:none;stroke:#38110E;stroke-width:0.4237;stroke-miterlimit:10;" d="M229.662,398.928
				c0,0-0.826,4.459-6.11,4.294"/>
			<path style="fill:#6B3C39;" d="M256.855,303.974c0,0-2.066,9.194-4.547,19.554c5.558-0.613,21.71-1.384,30.409,8.725
				c9.149-16.535,16.193-30.041,16.193-30.041C281.736,294.066,256.855,303.974,256.855,303.974z"/>
			<path style="fill:#D66562;" d="M240.782,260.158c0,0,9.924-0.09,26.422-2.422c16.498-2.332,33.908,1.982,39.082,20.037
				c5.174,18.055-3.193,54.826-3.193,54.826s-22.238-20.257-49.982-12.771c-27.743,7.486-47.559,11.89-56.367,10.789
				c-3.963-17.615-8.411-57.491,10.128-66.495C214.58,260.378,226.25,259.938,240.782,260.158z"/>
			<path style="fill:#EFEEE4;" d="M243.717,313.222c-17.846,6.138-39.64,8.314-48.573,8.984c0.503,3.129,1.055,5.986,1.601,8.411
				c8.807,1.101,28.624-3.303,56.367-10.789c27.743-7.486,49.982,12.771,49.982,12.771s1.251-5.51,2.487-13.3
				C289.06,310.854,262.546,306.746,243.717,313.222z"/>
			<path style="fill:#EFEEE4;" d="M196.257,201.256c-0.501,1.7-0.983,3.409-1.439,5.122c12.385,1.321,27.413,9.083,27.413,9.083
				l1.4-5.54C213.933,203.89,200.601,201.799,196.257,201.256z"/>
			<path style="fill:#EFEEE4;" d="M309.967,201.256c0.501,1.7,0.982,3.409,1.439,5.122c-12.385,1.321-27.413,9.083-27.413,9.083
				l-1.4-5.54C292.291,203.89,305.622,201.799,309.967,201.256z"/>
			<path style="fill:#462E2D;" d="M274.436,104.268c0,0,12.474,17.504,11.814,33.248c-0.661,15.743-23.229,11.89-29.064,10.129
				c-5.835-1.762-1.524-47.326-1.524-47.326L274.436,104.268z"/>
			<path style="fill:#332121;" d="M231.788,104.268c0,0-12.474,17.504-11.814,33.248c0.661,15.743,23.229,11.89,29.064,10.129
				c5.835-1.762,1.524-47.326,1.524-47.326L231.788,104.268z"/>
			<path style="fill:#8C564F;" d="M262.448,143.972l-9.336-0.731l-9.336,0.731c0,0,2.471,12.12,0,23.823
				c5.888,3.762,9.336,4.18,9.336,4.18s3.448-0.418,9.336-4.18C259.977,156.092,262.448,143.972,262.448,143.972z"/>
			<path style="fill:#462E2D;" d="M243.776,143.972c0,0,0.805,3.96,1.036,9.535c10.562-0.065,16.553-6.895,16.553-6.895
				c0.05-0.396,0.369-0.712,0.796-0.965c0.164-1.068,0.287-1.674,0.287-1.674l-9.336-0.731L243.776,143.972z"/>
			<path style="fill:#8C564F;" d="M279.733,127.597c-1.702,3.567-5.454,5.326-8.379,3.93c-2.925-1.396-3.917-5.42-2.214-8.986
				c1.702-3.567,5.454-5.326,8.379-3.93C280.444,120.006,281.435,124.03,279.733,127.597z"/>
			<path style="fill:#6B3C39;" d="M272.195,125.939c-0.926,1.939-1.049,4.011-0.504,5.725c2.871,1.115,6.404-0.635,8.042-4.066
				c0.926-1.939,1.049-4.011,0.504-5.725C277.366,120.757,273.833,122.507,272.195,125.939z"/>
			<path style="fill:#8C564F;" d="M226.491,127.597c1.702,3.567,5.454,5.326,8.379,3.93c2.925-1.396,3.917-5.42,2.214-8.986
				c-1.702-3.567-5.454-5.326-8.379-3.93C225.78,120.006,224.789,124.03,226.491,127.597z"/>
			<path style="fill:#6B3C39;" d="M234.029,125.939c0.926,1.939,1.049,4.011,0.504,5.725c-2.871,1.115-6.404-0.635-8.042-4.066
				c-0.926-1.939-1.049-4.011-0.504-5.725C228.858,120.757,232.391,122.507,234.029,125.939z"/>
			<path style="fill:#8C564F;" d="M270.122,102.947l-17.01-6.716l-17.01,6.716c0,0-1.924,26.752,2.835,36.66
				c4.759,9.908,14.175,9.688,14.175,9.688s9.416,0.22,14.175-9.688C272.046,129.699,270.122,102.947,270.122,102.947z"/>
			<path style="fill:#EFEEE4;" d="M256.139,123.369c0,0,4.954-6.11,11.45,0C262.194,124.8,259.607,124.525,256.139,123.369z"/>
			<path style="fill:#EFEEE4;" d="M250.084,123.369c0,0-4.954-6.11-11.449,0C244.029,124.8,246.616,124.525,250.084,123.369z"/>
			<path style="fill:#462E2D;" d="M267.538,123.382c0.006-0.015,0.008-0.031,0.014-0.046c-2.68-2.504-5.094-2.929-7.005-2.568
				c-0.136,0.387-0.224,0.797-0.224,1.231c0,0.891,0.324,1.698,0.843,2.34C262.904,124.37,264.88,124.084,267.538,123.382z"/>
			<path style="fill:#462E2D;" d="M250.084,123.369c0,0-2.728-3.359-6.788-2.6c-0.135,0.387-0.224,0.797-0.224,1.23
				c0,0.878,0.315,1.674,0.821,2.313C246.185,124.447,247.973,124.073,250.084,123.369z"/>
			<path style="fill:#462E2D;" d="M256.91,116.213c0,0,6.495-1.156,10.514,1.266C264.892,115.387,261.864,113.351,256.91,116.213z"
				/>
			<path style="fill:#462E2D;" d="M249.314,116.213c0,0-6.495-1.156-10.514,1.266C241.332,115.387,244.36,113.351,249.314,116.213z"
				/>
			<path style="fill:#38110E;" d="M252.231,127.222c0,0-0.44,6.111,0.22,6.11c0.66-0.001,2.917,0,2.917,0s-0.936,1.431-3.523,1.376
				C249.259,134.654,251.626,129.589,252.231,127.222z"/>
			<path style="fill:none;stroke:#38110E;stroke-width:0.4485;stroke-linecap:round;stroke-miterlimit:10;" d="M249.699,137.901
				c0,0,2.752,1.211,7.211,0"/>
			<g>
				<path style="fill:#38110E;" d="M256.139,123.369c0.553-0.961,1.39-1.765,2.371-2.348c0.983-0.584,2.154-0.917,3.329-0.879
					c1.167,0.059,2.318,0.387,3.283,0.992c0.501,0.267,0.915,0.664,1.357,0.998c0.391,0.401,0.766,0.81,1.109,1.238
					c-0.494-0.265-0.943-0.563-1.399-0.842c-0.488-0.224-0.934-0.514-1.421-0.699c-0.955-0.42-1.955-0.648-2.952-0.688
					C259.797,121.057,257.852,122.015,256.139,123.369z"/>
			</g>
			<g>
				<path style="fill:#38110E;" d="M250.084,123.369c-1.713-1.354-3.658-2.312-5.678-2.228c-0.997,0.04-1.997,0.268-2.952,0.688
					c-0.487,0.185-0.933,0.474-1.421,0.699c-0.456,0.278-0.905,0.577-1.399,0.842c0.343-0.428,0.719-0.838,1.109-1.238
					c0.442-0.333,0.856-0.73,1.357-0.998c0.965-0.605,2.116-0.933,3.283-0.992c1.175-0.038,2.347,0.295,3.329,0.879
					C248.695,121.605,249.532,122.408,250.084,123.369z"/>
			</g>
			<path style="fill:none;stroke:#AF4646;stroke-miterlimit:10;" d="M220.91,260.69c0,0,10.109-1.009,22.807,0
				c12.698,1.009,26.21-6.426,41.087-2.543"/>
			<path style="opacity:0.57;fill:#B24F4F;" d="M266.653,265.993c0,0-17.505,35.67-36.991,41.945S261.038,277.552,266.653,265.993z"
				/>
			<path style="fill:none;stroke:#38110E;stroke-width:0.4024;stroke-miterlimit:10;" d="M264.03,364.696
				c0,0-9.766,15.402-11.358,17.883"/>
			<path style="opacity:0.24;fill:#EFEEE4;" d="M253.112,96.231l-2.191,0.865l-12.121,8.581c0,0-6.21,44.347,20.492,42.104
				c2.752-1.297,5.847-3.702,7.995-8.174c4.759-9.908,2.835-36.66,2.835-36.66L253.112,96.231z"/>
			<path style="fill:#462E2D;" d="M258.727,103.718c0,0,5.572,11.119,12.639,10.239c7.067-0.881,6.406-19.266,0.241-23.229
				c-6.165-3.963-14.752-3.743-17.945,0.881C250.47,96.231,258.727,103.718,258.727,103.718z"/>
			<path style="fill:#462E2D;" d="M258.727,103.718c0,0-12.991,12.661-25.101,12.11c-12.11-0.55-8.367-25.321,6.605-30.495
				C255.204,80.158,263.681,96.011,258.727,103.718z"/>
			<path style="fill:#332121;" d="M255.026,87.685c-3.481-3.017-8.574-4.503-14.795-2.353c-10.242,3.539-15.225,16.246-13.478,24.1
				C245.03,112.862,253.325,92.535,255.026,87.685z"/>
			<polygon style="fill:#6B3C39;" points="250.661,168.225 255.369,168.225 253.015,173.683 			"/>
			<path style="fill:#D66562;" d="M311.005,233.737l3.855,1.073c0,0,0.768,1.072-0.222,1.651c-0.685,0.401-1.563,0-1.563,0
				l-4.142-1.066C308.932,235.396,308.858,233.737,311.005,233.737z"/>
			<path style="fill:#EFEEE4;" d="M313.124,233.296c0,0-4.269,2.019-4.764,3.423c-4.376-1.569-3.56-1.276-3.56-1.276
				s3.303-2.56,5.945-2.725C313.124,233.296,313.124,233.296,313.124,233.296z"/>
		</g>
		<path style="fill:none;stroke:#D66562;stroke-miterlimit:10;" d="M335.825,131.648c0,0-0.568,44.048,20.771,68.288
			c29.947,34.019,12.63,93.294-16.952,83.306c-29.582-9.988-7.342-42.539-26.52-48.055"/>
	</g>
	<g>
		<g>
			<path style="fill:#723C2E;" d="M178.833,312.822H73.337c-1.563,0-2.83-1.267-2.83-2.83l0,0c0-1.563,1.267-2.83,2.83-2.83h105.495
				c1.563,0,2.83,1.267,2.83,2.83l0,0C181.662,311.555,180.396,312.822,178.833,312.822z"/>
			<rect x="121.739" y="312.822" style="fill:#723C2E;" width="6.861" height="112.471"/>
			<rect x="121.739" y="312.822" style="fill:#38110E;" width="6.861" height="8.521"/>
			<path style="fill:#38110E;" d="M149.4,432.816h-48.545l0,0c0-4.226,3.426-7.651,7.651-7.651h33.242
				C145.974,425.165,149.4,428.591,149.4,432.816L149.4,432.816z"/>
		</g>
		<g>
			<g>
				<path style="fill:#AF1018;" d="M129.581,307.163h28.197c4.442,0,8.043-3.601,8.043-8.043l0,0c0-4.442-3.601-8.043-8.043-8.043
					h-28.197V307.163z"/>
				<path style="fill:#D66562;" d="M129.581,307.163h28.197c4.442,0,8.043-3.601,8.043-8.043l0,0c0-4.442-3.601-8.043-8.043-8.043
					h-28.197V307.163z"/>
				<path style="fill:#FFFFFF;" d="M130.066,305.842H94.754v-12.771h35.312c3.347,0,6.06,2.713,6.06,6.06v0.651
					C136.126,303.129,133.413,305.842,130.066,305.842z"/>
				<path style="fill:#D6C7B4;" d="M130.066,293.071c3.343,0,6.053,2.706,6.06,6.047c-0.58-2.735-3.008-4.787-5.916-4.787H94.754
					v-1.26H130.066z"/>
				<path style="opacity:0.35;fill:#590A06;" d="M151.679,299.12L151.679,299.12c0-4.442-3.601-8.043-8.043-8.043h5.317
					c4.442,0,8.043,3.601,8.043,8.043l0,0c0,4.442-3.601,8.043-8.043,8.043h-5.317C148.078,307.163,151.679,303.562,151.679,299.12z
					"/>
				<g>
					<path style="fill:#D3CABE;" d="M97.943,300.952c2.873-0.124,5.746-0.181,8.619-0.229l8.619-0.07l8.619,0.069
						c2.873,0.048,5.746,0.106,8.619,0.23c-2.873,0.124-5.746,0.182-8.619,0.23l-8.619,0.069l-8.619-0.07
						C103.689,301.133,100.816,301.075,97.943,300.952z"/>
				</g>
				<g>
					<path style="fill:#D3CABE;" d="M94.961,299.457c2.873-0.124,5.746-0.181,8.619-0.229l8.619-0.07l8.619,0.069
						c2.873,0.048,5.746,0.106,8.619,0.23c-2.873,0.125-5.746,0.182-8.619,0.23l-8.619,0.069l-8.619-0.07
						C100.707,299.638,97.834,299.58,94.961,299.457z"/>
				</g>
				<g>
					<path style="fill:#D3CABE;" d="M96.411,296.629c2.873-0.124,5.746-0.181,8.619-0.229l8.619-0.07l8.619,0.069
						c2.873,0.048,5.746,0.106,8.619,0.23c-2.873,0.124-5.746,0.182-8.619,0.23l-8.619,0.069l-8.619-0.07
						C102.157,296.81,99.284,296.753,96.411,296.629z"/>
				</g>
				<path style="fill:#AF4646;" d="M128.949,305.168c3.34,0,6.049-2.708,6.049-6.049l0,0c0-3.341-2.708-6.049-6.049-6.049H93.433
					v-1.994h35.683c4.442,0,8.043,3.601,8.043,8.043l0,0c0,4.442-3.601,8.043-8.043,8.043H93.433v-1.994H128.949z"/>
				<path style="opacity:0.2;fill:#560410;" d="M141.871,291.077h15.906c4.442,0,8.043,3.601,8.043,8.043v0
					c0,4.442-3.601,8.043-8.043,8.043C157.777,292.219,141.871,291.077,141.871,291.077z"/>
			</g>
		</g>
	</g>
	<g>
		<g>
			<rect x="282.54" y="52.508" style="fill:#D66562;" width="8.362" height="25.392"/>
			
				<rect x="282.54" y="52.508" transform="matrix(-1.836970e-16 1 -1 -1.836970e-16 351.9251 -221.5159)" style="fill:#D66562;" width="8.362" height="25.392"/>
		</g>
		<g>
			<rect x="177.523" y="129.72" style="fill:#FFF6E7;" width="6.454" height="19.6"/>
			
				<rect x="177.523" y="129.72" transform="matrix(-1.836970e-16 1 -1 -1.836970e-16 320.2701 -41.2308)" style="fill:#FFF6E7;" width="6.454" height="19.6"/>
		</g>
		<g>
			<rect x="401.92" y="142.621" style="fill:#FFF6E7;" width="13.297" height="40.379"/>
			
				<rect x="401.92" y="142.621" transform="matrix(-1.836970e-16 1 -1 -1.836970e-16 571.3784 -245.7581)" style="fill:#FFF6E7;" width="13.297" height="40.379"/>
		</g>
	</g>
</g>
</svg>
